<svg xmlns="http://www.w3.org/2000/svg" width="1075" height="1075" viewBox="512.5 212.5 1075 1075">
  <metadata><?xpacket begin="﻿" id="W5M0MpCehiHzreSzNTczkc9d"?>
<x:xmpmeta xmlns:x="adobe:ns:meta/" x:xmptk="Adobe XMP Core 5.6-c142 79.160924, 2017/07/13-01:06:39        ">
   <rdf:RDF xmlns:rdf="http://www.w3.org/1999/02/22-rdf-syntax-ns#">
      <rdf:Description rdf:about=""/>
   </rdf:RDF>
</x:xmpmeta>
                                                                                                    
                                                                                                    
                                                                                                    
                                                                                                    
                                                                                                    
                                                                                                    
                                                                                                    
                                                                                                    
                                                                                                    
                                                                                                    
                                                                                                    
                                                                                                    
                                                                                                    
                                                                                                    
                                                                                                    
                                                                                                    
                                                                                                    
                                                                                                    
                                                                                                    
                                                                                                    
                           
<?xpacket end="w"?></metadata>
<defs>
    <style>
      .cls-1 {
        fill: #fff;
      }

      .cls-1, .cls-2 {
        fill-rule: evenodd;
      }

      .cls-2 {
        fill: none;
        stroke: #fff;
        stroke-width: 20px;
      }
    </style>
  </defs>
  <path id="D" class="cls-1" d="M1269.74,559.539c-24.75-2.812-54-4.5-88.87-4.5-73.69,0-132.19,19.125-167.63,54.563-35.434,34.875-54.559,85.5-54.559,147.375,0,61.312,19.688,105.187,53.439,136.125,33.19,30.937,83.25,47.25,153.56,47.25a700.93,700.93,0,0,0,104.06-7.875V559.539Zm-48.93,336.938c-12.94,2.812-32.07,5.062-57.38,5.062-103.5,0-154.12-56.812-153.56-146.25,0-102.375,56.81-160.875,161.44-160.875,19.12,0,37.12.563,49.5,2.813v299.25Z"/>
  <path id="D-2" data-name="D" class="cls-1" d="M823.75,938.875c24.75,2.813,54,4.5,88.875,4.5,73.687,0,132.185-19.125,167.625-54.563,35.44-34.874,54.56-85.5,54.56-147.374,0-61.313-19.69-105.188-53.43-136.126-33.19-30.937-83.255-47.25-153.568-47.25a700.948,700.948,0,0,0-104.062,7.876V938.875Zm48.938-336.937c12.937-2.813,32.062-5.063,57.374-5.063,103.5,0,154.128,56.813,153.558,146.25C1083.62,845.5,1026.81,904,922.188,904c-19.126,0-37.126-.562-49.5-2.812V601.938Z"/>
  <path class="cls-2" d="M1052.02,286c0,2.022-466.02,462.989-466.02,462.989L1047.98,1214,1514,753.033S1052.02,283.978,1052.02,286Z"/>
</svg>
