<svg xmlns="http://www.w3.org/2000/svg" width="1700" height="325" viewBox="200 587.5 1700 325">
  <metadata><?xpacket begin="﻿" id="W5M0MpCehiHzreSzNTczkc9d"?>
<x:xmpmeta xmlns:x="adobe:ns:meta/" x:xmptk="Adobe XMP Core 5.6-c142 79.160924, 2017/07/13-01:06:39        ">
   <rdf:RDF xmlns:rdf="http://www.w3.org/1999/02/22-rdf-syntax-ns#">
      <rdf:Description rdf:about=""/>
   </rdf:RDF>
</x:xmpmeta>
                                                                                                    
                                                                                                    
                                                                                                    
                                                                                                    
                                                                                                    
                                                                                                    
                                                                                                    
                                                                                                    
                                                                                                    
                                                                                                    
                                                                                                    
                                                                                                    
                                                                                                    
                                                                                                    
                                                                                                    
                                                                                                    
                                                                                                    
                                                                                                    
                                                                                                    
                                                                                                    
                           
<?xpacket end="w"?></metadata>
<defs>
    <style>
      .cls-1 {
        fill: #fff;
        fill-opacity: 0;
        stroke: #ebe489;
        stroke-linejoin: round;
        stroke-width: 13px;
        fill-rule: evenodd;
      }
    </style>
  </defs>
  <path id="D" class="cls-1" d="M224.333,827.333A467.966,467.966,0,0,0,277,830c43.666,0,78.332-11.333,99.332-32.333,21-20.666,32.332-50.666,32.332-87.332C408.663,674,397,648,377,629.67c-19.666-18.333-49.332-28-91-28a415.322,415.322,0,0,0-61.666,4.667v221Zm29-199.663c7.666-1.667,19-3,34-3,61.332,0,91.332,33.666,91,86.665,0,60.666-33.667,95.332-95.666,95.332-11.333,0-22-.333-29.332-1.667V627.67Z"/>
  <path id="a" class="cls-1" d="M582.331,826c-2-11-2.666-24.666-2.666-38.666V727c0-32.333-12-66-61.333-66-20.333,0-39.666,5.666-53,14.333L472,694.669c11.333-7.334,27-12,42-12,33,0,36.666,24,36.666,37.333v3.333c-62.332-.333-97,21-97,60,0,23.333,16.667,46.333,49.333,46.333,23,0,40.333-11.334,49.333-24h1L555.665,826h26.666Zm-31-54.333A30.62,30.62,0,0,1,549.665,781c-4.667,13.666-18,27-39,27-15,0-27.667-9-27.667-28,0-31.333,36.333-37,68.333-36.333v28Z"/>
  <path id="v" class="cls-1" d="M627.333,668.669L688.666,830h28L780,668.669H749.331L718,759.334c-5.334,14.667-10,28-13.667,41.333h-1a414.68,414.68,0,0,0-13-41.333l-31.666-90.665H627.333Z"/>
  <path id="i" class="cls-1" d="M857.666,823V661.669H828.333V823h29.333ZM843,598a17.874,17.874,0,0,0-18.333,18.333c0,10,7.334,18,17.667,18,11.666,0,19-8,18.666-18C861,606,854,598,843,598Z"/>
  <path id="d-2" data-name="d" class="cls-1" d="M1027.33,589.337v96.332h-0.67c-7.33-13-24-24.666-48.661-24.666-39.333,0-72.666,33-72.333,86.665,0,49,30,82,69,82,26.335,0,46-13.667,55-31.667h0.67l1.33,28H1058c-1-11-1.34-27.333-1.34-41.666v-195h-29.33Zm0,169A50.958,50.958,0,0,1,1026,771c-5.34,22-23.34,35-43,35-31.667,0-47.666-27-47.666-59.665,0-35.667,18-62.333,48.332-62.333,22,0,38,15.333,42.335,34a51.767,51.767,0,0,1,1.33,12.333v28Z"/>
  <path id="D-3" data-name="D" class="cls-1" d="M1131.33,827.333A468.056,468.056,0,0,0,1184,830c43.66,0,78.33-11.333,99.33-32.333,21-20.666,32.33-50.666,32.33-87.332C1315.66,674,1304,648,1284,629.67c-19.67-18.333-49.34-28-91-28a415.422,415.422,0,0,0-61.67,4.667v221Zm29-199.663c7.67-1.667,19-3,34-3,61.33,0,91.33,33.666,91,86.665,0,60.666-33.67,95.332-95.66,95.332-11.34,0-22-.333-29.34-1.667V627.67Z"/>
  <path id="o" class="cls-1" d="M1440.67,661c-44.67,0-80,31.666-80,85.665,0,51,33.66,83,77.33,83,39,0,80.33-26,80.33-85.666C1518.33,694.669,1487,661,1440.67,661ZM1440,683c34.66,0,48.33,34.666,48.33,62,0,36.333-21,62.666-49,62.666-28.66,0-49-26.666-49-62C1390.33,715,1405.33,683,1440,683Z"/>
  <path id="a-2" data-name="a" class="cls-1" d="M1692.33,819c-2-11-2.67-24.666-2.67-38.666V720c0-32.333-12-66-61.33-66-20.33,0-39.66,5.666-53,14.333l6.67,19.333c11.33-7.334,27-12,42-12,33,0,36.67,24,36.67,37.333v3.333c-62.34-.333-97,21-97,60,0,23.333,16.66,46.333,49.33,46.333,23,0,40.33-11.334,49.33-24h1L1665.66,819h26.67Zm-31-54.333a30.609,30.609,0,0,1-1.66,9.334c-4.67,13.666-18,27-39,27-15,0-27.67-9-27.67-28,0-31.333,36.33-37,68.33-36.333v28Z"/>
  <path id="n" class="cls-1" d="M1739.33,823h29.34V726a42,42,0,0,1,2-13.666c5-16.333,20-30,39.33-30,27.66,0,37.33,21.667,37.33,47.666v93h29.33V726.668c0-55.332-34.66-68.665-56.99-68.665-26.67,0-45.34,15-53.34,30.332h-0.66L1764,661.669h-26c1,13.333,1.33,27,1.33,43.666V823Z"/>
</svg>
