<?xml version="1.0" standalone="no"?>
<!DOCTYPE svg PUBLIC "-//W3C//DTD SVG 20010904//EN"
 "http://www.w3.org/TR/2001/REC-SVG-20010904/DTD/svg10.dtd">
<svg version="1.0" xmlns="http://www.w3.org/2000/svg"
 width="1075.000000pt" height="1075.000000pt" viewBox="0 0 1075.000000 1075.000000"
 preserveAspectRatio="xMidYMid meet">
<metadata>
Created by potrace 1.11, written by Peter Selinger 2001-2013
</metadata>
<g transform="translate(0.000000,1075.000000) scale(0.100000,-0.100000)"
fill="#000000" stroke="none">
<path d="M5003 10183 c-210 -208 -823 -817 -1363 -1353 -540 -536 -1215 -1207
-1500 -1490 -1631 -1619 -1550 -1537 -1550 -1571 0 -18 2 -30 5 -27 7 7 85
-71 85 -84 0 -5 4 -7 9 -3 5 3 13 -4 16 -16 4 -11 9 -18 12 -15 7 7 82 -67 76
-76 -2 -5 0 -8 6 -8 13 0 151 -137 151 -150 0 -6 4 -9 8 -8 10 4 117 -104 114
-114 -1 -5 2 -8 8 -8 13 0 76 -62 72 -72 -1 -4 3 -8 10 -8 6 0 57 -47 114
-104 56 -58 105 -102 108 -99 3 4 6 -4 6 -16 0 -12 4 -20 8 -17 5 3 42 -29 83
-72 41 -42 92 -92 112 -109 21 -18 36 -33 34 -33 -7 0 125 -130 132 -131 3 0
24 -22 46 -48 22 -26 54 -58 70 -71 17 -13 53 -50 80 -81 28 -31 60 -62 73
-69 12 -8 22 -20 22 -28 0 -9 2 -13 5 -10 9 9 652 -636 647 -647 -3 -5 -1 -7
3 -2 10 9 176 -154 169 -165 -3 -5 -1 -7 4 -6 5 2 28 -16 51 -40 23 -24 41
-40 41 -36 0 4 8 -4 19 -17 36 -46 170 -176 176 -171 3 3 5 -2 5 -11 0 -9 4
-17 8 -17 9 0 53 -41 113 -106 20 -21 68 -69 107 -106 40 -37 72 -72 72 -79 0
-7 3 -10 6 -6 3 3 18 -8 33 -26 14 -18 29 -33 33 -35 16 -7 228 -223 228 -232
0 -6 4 -10 9 -10 14 0 71 -57 71 -71 0 -7 3 -10 6 -6 8 8 200 -185 196 -198
-2 -5 0 -7 3 -3 4 4 108 -93 231 -216 123 -123 224 -221 224 -217 0 3 5 -1 10
-9 16 -25 173 -180 182 -180 5 0 6 -5 3 -10 -3 -5 -2 -10 3 -10 11 0 215 -205
220 -220 2 -6 8 -8 13 -4 5 3 9 -3 9 -12 0 -10 2 -15 5 -12 3 3 95 -84 204
-192 l199 -198 510 506 c281 279 903 896 1382 1372 479 476 1104 1097 1390
1380 1326 1316 1520 1511 1520 1528 0 10 -18 34 -40 55 -22 20 -40 41 -40 47
0 5 -3 9 -7 8 -12 -4 -408 395 -405 407 2 5 0 7 -4 2 -4 -4 -72 58 -151 138
-79 80 -148 145 -153 145 -4 0 -10 4 -12 10 -5 15 -148 160 -158 160 -5 0 -12
9 -15 20 -4 11 -9 18 -13 16 -10 -5 -32 20 -25 28 4 3 1 6 -5 6 -14 0 -118
110 -115 121 2 5 0 8 -5 8 -21 -4 -32 3 -32 18 0 9 -2 14 -6 11 -7 -7 -264
251 -264 265 0 6 -3 8 -6 5 -7 -8 -650 632 -647 643 2 5 0 8 -5 7 -4 -2 -18 5
-32 15 -13 9 -22 17 -18 17 4 0 -27 32 -67 72 -41 39 -71 76 -68 81 3 6 2 7
-4 4 -6 -4 -22 7 -37 23 -14 17 -30 30 -35 30 -5 0 -13 9 -16 21 -4 11 -9 19
-11 16 -5 -5 -154 144 -154 155 0 5 -3 7 -7 5 -10 -4 -112 100 -105 108 3 3 1
5 -5 5 -13 0 -153 137 -153 150 0 6 -3 9 -7 8 -11 -3 -153 140 -153 153 0 6
-4 8 -9 5 -5 -3 -11 1 -15 9 -3 8 -13 15 -22 15 -10 0 -15 3 -12 6 4 3 -33 45
-82 94 -49 49 -85 91 -82 95 4 4 2 5 -4 3 -6 -1 -74 61 -152 138 -77 78 -143
139 -146 136 -3 -3 -6 -1 -6 5 0 6 -50 60 -111 119 -146 144 -212 213 -222
230 -4 8 -12 14 -16 14 -9 0 -116 104 -156 152 -14 16 -25 27 -25 24 0 -2 -13
7 -28 22 -15 15 -26 30 -24 35 2 4 -1 7 -7 7 -14 0 -81 67 -74 74 4 3 2 6 -4
6 -14 0 -379 362 -375 373 1 4 -3 7 -8 7 -14 0 -156 141 -152 152 1 4 -5 8
-13 8 -8 0 -20 9 -27 20 -7 11 -15 20 -19 20 -3 0 -177 -170 -386 -377z m1874
-1490 c442 -439 1813 -1799 2530 -2511 l381 -379 -296 -296 c-164 -163 -525
-523 -804 -799 -279 -277 -918 -911 -1420 -1410 -1664 -1652 -1856 -1843
-1882 -1867 l-26 -25 -333 332 c-182 182 -544 542 -804 799 -260 257 -909 902
-1443 1433 -534 531 -1162 1154 -1396 1386 -233 231 -424 423 -424 426 0 3
108 113 240 244 132 132 496 493 809 804 313 311 993 986 1511 1500 518 514
1148 1141 1402 1392 l460 457 527 -524 c289 -288 725 -721 968 -962z"/>
<path d="M6450 7736 c-3 -2 -52 -7 -110 -11 -57 -4 -107 -8 -110 -10 -3 -2
-31 -6 -63 -10 -32 -3 -82 -10 -110 -16 -29 -6 -65 -13 -82 -15 -120 -20 -351
-94 -498 -160 -53 -24 -102 -44 -107 -44 -6 0 -34 12 -62 26 -93 47 -320 123
-418 140 -14 3 -30 6 -37 9 -10 3 -140 25 -238 40 -174 26 -872 26 -1037 0
-13 -2 -54 -6 -93 -10 -88 -8 -153 -15 -185 -20 -14 -3 -52 -7 -84 -11 -33 -3
-67 -7 -75 -9 -15 -2 -16 -178 -19 -1867 l-2 -1865 92 -8 c51 -4 102 -9 113
-10 156 -19 846 -27 1010 -13 356 32 655 108 928 238 l49 23 51 -23 c114 -49
207 -84 299 -111 125 -36 243 -61 354 -74 33 -4 68 -9 79 -11 140 -26 774 -25
1015 1 19 2 67 6 105 9 39 4 88 9 110 12 87 11 144 18 225 29 13 2 15 218 18
1868 l2 1867 -32 1 c-18 1 -44 2 -58 4 -24 3 -144 13 -255 21 -77 6 -770 15
-775 10z m470 -400 c41 -3 94 -9 118 -12 l42 -6 -2 -1496 -3 -1496 -40 -7
c-40 -7 -78 -12 -210 -28 -117 -14 -479 -11 -605 4 -188 24 -402 78 -490 125
-21 11 -21 12 22 58 151 163 279 384 357 617 49 148 81 289 106 475 3 25 8
142 10 260 4 215 -1 288 -30 475 -17 106 -77 307 -116 389 -10 22 -19 43 -19
47 0 3 -21 44 -46 90 -53 96 -149 234 -209 297 -22 24 -41 47 -43 51 -3 10
134 65 230 91 128 35 247 55 398 68 98 8 419 7 530 -2z m-2440 -30 c190 -25
490 -110 490 -139 0 -5 -19 -29 -42 -53 -53 -56 -147 -186 -201 -279 -121
-206 -229 -546 -252 -795 -3 -36 -8 -85 -10 -110 -6 -60 -6 -352 0 -415 4 -50
9 -92 21 -175 14 -103 70 -318 95 -362 5 -10 9 -22 9 -28 0 -10 90 -199 112
-235 43 -69 139 -198 180 -240 55 -58 54 -60 -43 -98 -141 -55 -355 -101 -534
-114 -163 -12 -522 -6 -645 12 -14 2 -31 4 -37 4 -10 1 -13 307 -13 1495 0
1415 1 1495 18 1500 9 3 33 7 52 10 19 3 45 8 58 10 12 3 59 8 105 12 45 3 84
8 86 10 6 6 500 -3 551 -10z m924 -448 c160 -183 271 -465 303 -768 13 -129 5
-522 -12 -573 -2 -7 -6 -28 -9 -47 -24 -156 -86 -346 -160 -486 -47 -89 -141
-227 -181 -264 l-22 -21 -45 53 c-131 156 -220 347 -267 575 -31 150 -32 164
-36 373 -4 240 6 337 61 597 11 52 69 205 112 292 51 105 190 307 213 310 3 1
22 -18 43 -41z"/>
</g>
</svg>
